# xmcd
#
# Track frame offsets:
#	150
#	23092
#	57097
#	88914
#	134110
#	169330
#	196985
#	225532
#	262717
#	290917
#
# Disc length: 4328 seconds
#
# Revision: 0
# Processed by: cddbd v1.5.2PL0 Copyright (c) Steve Scherf et al.
# Submitted via: audiograbber 1.83.01
#
DISCID=8f10e60a
DTITLE=Grateful Dead - 93-06-23 Deer Creek Music Centre, Noblesville IN
DYEAR=1900
DGENRE=
TTITLE0=Let The Good Times Roll
TTITLE1=Hell In A Bucket
TTITLE2=Lazy River Road
TTITLE3=Memphis Blues
TTITLE4=Loser
TTITLE5=Broken Arrow
TTITLE6=Easy Answers
TTITLE7=Samson and Delilah
TTITLE8=Long Way To Go Home
TTITLE9=Wave To The Wind
EXTD=
EXTT0=
EXTT1=
EXTT2=
EXTT3=
EXTT4=
EXTT5=
EXTT6=
EXTT7=
EXTT8=
EXTT9=
PLAYORDER=
